<?xml version="1.0" encoding="utf-8"?>
<!-- Generator: Adobe Illustrator 15.1.0, SVG Export Plug-In . SVG Version: 6.00 Build 0)  -->
<!DOCTYPE svg PUBLIC "-//W3C//DTD SVG 1.1//EN" "http://www.w3.org/Graphics/SVG/1.1/DTD/svg11.dtd">
<svg version="1.1" id="Calque_1" xmlns="http://www.w3.org/2000/svg" xmlns:xlink="http://www.w3.org/1999/xlink" x="0px" y="0px"
	 width="588px" height="149.39px" viewBox="0 0 588 149.39" enable-background="new 0 0 588 149.39" xml:space="preserve">
<text transform="matrix(1 0 0 1 166.3037 120.4194)" font-family="'NexaBold'" font-size="131.4967">Cinélia</text>
<g>
	<g>
		<line fill="none" stroke="#000000" stroke-width="6.3981" x1="19.5" y1="13.735" x2="19.5" y2="135.656"/>
		<line fill="none" stroke="#000000" stroke-width="6.3981" x1="40.827" y1="13.735" x2="40.827" y2="135.656"/>
		<g>
			<line fill="none" stroke="#000000" stroke-width="6.3981" x1="19.5" y1="23.155" x2="40.827" y2="23.155"/>
			<line fill="none" stroke="#000000" stroke-width="6.3981" x1="19.5" y1="40.271" x2="40.827" y2="40.271"/>
			<line fill="none" stroke="#000000" stroke-width="6.3981" x1="19.5" y1="57.385" x2="40.827" y2="57.385"/>
			<line fill="none" stroke="#000000" stroke-width="6.3981" x1="19.5" y1="74.5" x2="40.826" y2="74.5"/>
			<line fill="none" stroke="#000000" stroke-width="6.3981" x1="19.5" y1="91.617" x2="40.827" y2="91.617"/>
			<line fill="none" stroke="#000000" stroke-width="6.3981" x1="19.5" y1="108.733" x2="40.827" y2="108.733"/>
			<line fill="none" stroke="#000000" stroke-width="6.3981" x1="19.5" y1="125.848" x2="40.827" y2="125.848"/>
		</g>
	</g>
	<g>
		<line fill="none" stroke="#000000" stroke-width="6.3981" x1="121.516" y1="13.735" x2="121.516" y2="135.656"/>
		<line fill="none" stroke="#000000" stroke-width="6.3981" x1="142.842" y1="13.735" x2="142.842" y2="135.656"/>
		<g>
			<line fill="none" stroke="#000000" stroke-width="6.3981" x1="121.516" y1="23.155" x2="142.842" y2="23.155"/>
			<line fill="none" stroke="#000000" stroke-width="6.3981" x1="121.516" y1="40.271" x2="142.842" y2="40.271"/>
			<line fill="none" stroke="#000000" stroke-width="6.3981" x1="121.516" y1="57.385" x2="142.842" y2="57.385"/>
			<line fill="none" stroke="#000000" stroke-width="6.3981" x1="121.516" y1="74.5" x2="142.842" y2="74.5"/>
			<line fill="none" stroke="#000000" stroke-width="6.3981" x1="121.516" y1="91.617" x2="142.842" y2="91.617"/>
			<line fill="none" stroke="#000000" stroke-width="6.3981" x1="121.516" y1="108.733" x2="142.842" y2="108.733"/>
			<line fill="none" stroke="#000000" stroke-width="6.3981" x1="121.516" y1="125.848" x2="142.842" y2="125.848"/>
		</g>
	</g>
	<line fill="none" stroke="#000000" stroke-width="6.3981" x1="40.827" y1="99.595" x2="121.516" y2="99.595"/>
	<line fill="none" stroke="#000000" stroke-width="6.3981" x1="40.827" y1="48.772" x2="121.516" y2="48.772"/>
</g>
</svg>
